<?xml version="1.0" encoding="utf-8"?>
<!-- Generator: Adobe Illustrator 23.0.0, SVG Export Plug-In . SVG Version: 6.00 Build 0)  -->
<svg version="1.1" id="Layer_1" xmlns="http://www.w3.org/2000/svg" xmlns:xlink="http://www.w3.org/1999/xlink" x="0px" y="0px"
	 viewBox="0 0 558 115" style="enable-background:new 0 0 558 115;" xml:space="preserve">
<style type="text/css">
	.st0{fill-rule:evenodd;clip-rule:evenodd;fill:#FFFFFF;}
	.st1{fill-rule:evenodd;clip-rule:evenodd;fill:#0071BC;}
</style>
<path class="st0" d="M555.51,42.04c-2.36-0.47-4.81-0.59-7.16-1.13c-8.34-1.92-16.65-3.96-24.97-5.94
	c-4.68-1.12-9.34-2.32-14.05-3.26c-1.61-0.32-2.21-0.99-2.27-2.48c-0.13-3.45-0.32-6.9-0.41-10.35c-0.11-4.19-0.08-8.38-0.23-12.56
	c-0.1-2.77-4.36-5.64-7.45-4.92c-4.16,0.97-8.29,1.03-12.55,0.89c-5.48-0.18-10.98,0.44-16.48,0.76c-7.27,0.42-14.53,0.96-21.8,1.28
	c-3.06,0.13-6.13-0.22-9.2-0.28c-10.22-0.21-20.45-0.23-30.67-0.63c-7.78-0.3-15.54-1.17-23.31-1.56c-4.84-0.24-9.7,0-14.55-0.09
	c-6.13-0.11-12.25-0.48-18.38-0.48c-8.79,0-17.58,0.28-26.38,0.33c-4.48,0.03-8.96-0.27-13.44-0.29
	c-6.11-0.02-12.22,0.13-18.33,0.14c-6.38,0.01-12.77,0.09-19.14-0.1c-9.2-0.27-18.38-0.95-27.61-0.38
	c-4.84,0.3-9.72,0.09-14.59-0.02c-8.17-0.17-16.38-0.97-24.51-0.52c-10.44,0.58-20.91,0.16-31.34,1.36
	c-5.78,0.67-11.69,0.23-17.54,0.35c-3.06,0.06-6.11,0.29-9.17,0.39c-2.9,0.09-5.81,0.04-8.71,0.19c-3.44,0.19-6.86,0.52-10.29,0.81
	c-1.27,0.11-2.54,0.37-3.81,0.38c-6.64,0.06-13.27,0.05-19.91,0.09c-3.43,0.02-6.86,0.03-10.28,0.19c-2.16,0.1-4.31,0.61-6.47,0.72
	c-5.73,0.29-11.47,0.4-17.21,0.73c-1.61,0.09-3.19,0.68-4.98,1.08c-0.23-0.38-0.57-0.75-0.69-1.19c-0.36-1.2-0.88-2.28-2.34-1.98
	c-1.32,0.27-1.67,1.35-1.72,2.64c-0.15,4.08-0.56,8.17-0.52,12.25c0.02,2.42-0.97,3.51-3.14,4.04c-9.44,2.3-18.92,4.44-28.26,7.06
	c-5.8,1.62-11.83,1-17.62,2.49c-3.74,0.97-4.51,2.47-2.04,5.49c2.57,3.15,5.31,6.16,7.94,9.27c3.94,4.64,7.83,9.33,11.79,13.96
	c0.98,1.14,2.06,2.24,3.25,3.17c3.03,2.37,2.98,3.21-0.55,4.98c-1.6,0.8-3.34,1.38-4.8,2.38c-4.1,2.8-8.06,5.8-12.11,8.66
	c-3.02,2.12-6.11,4.13-9.18,6.18c-0.31,0.21-0.9,0.22-1.02,0.48c-1.51,3.21-4.19,5.37-6.65,7.76c-1.16,1.13-0.79,2.36,0.84,2.95
	c1.64,0.59,3.4,0.95,5.13,1.17c4.03,0.53,8.12,0.67,12.1,1.41c10.77,2.02,21.49,4.29,32.24,6.42c9.98,1.98,20.02,3.54,30.17,4.54
	c7.1,0.7,14.12,2.16,21.18,3.23c2.15,0.33,4.36,0.66,6.18-1.07c1.32-1.25,2.4-2.26,1.33-4.56c-0.77-1.67-0.62-4.02-0.22-5.94
	c1.02-4.96,0.65-10.23,3.52-15.16c3.33,0.25,6.96,0.62,10.6,0.78c3.82,0.17,7.66,0.28,11.48,0.18c9.43-0.25,18.87-0.64,28.31-0.96
	c7.66-0.26,15.33-0.37,22.99-0.78c12.5-0.67,25.01-0.29,37.52-0.33c8.02-0.03,16.04-1.02,24.07-1.48c4.98-0.29,9.98-0.43,14.97-0.56
	c6.64-0.17,13.29-0.29,19.93-0.37c4.86-0.07,9.73-0.1,14.59-0.06c7.29,0.06,14.58,0.11,21.87,0.3c8.31,0.22,16.62,0.74,24.93,0.84
	c6.09,0.07,12.19-0.37,18.29-0.52c2.55-0.06,5.11,0.03,7.67,0.05c6.9,0.06,13.8,0.11,20.7,0.19c4.57,0.05,9.13,0.21,13.69,0.2
	c7.14-0.01,14.29-0.13,21.44-0.2c7.42-0.07,14.83-0.06,22.25-0.21c3.93-0.08,7.85-0.42,12.23-0.67c0.34,5.94,1.69,11.61-1.6,17.18
	c-0.89,1.5-0.47,3.9-0.28,5.85c0.15,1.45,1.2,1.96,2.84,1.65c1.55-0.29,3.22-0.14,4.81,0.01c5.72,0.55,11.44,1.22,17.16,1.75
	c2.54,0.24,5.11,0.22,7.66,0.38c14.14,0.87,28.29,1.69,42.43,2.67c4.53,0.31,9.03,1.13,13.56,1.56c0.99,0.09,2.05-0.51,3.82-1
	c-1.24-1.31-2.09-2.21-2.89-3.07l0.08-0.19c4.58-0.59,5.09-1.69,2.21-5.34c-1.97-2.5-4.11-4.88-6.36-7.13
	c-5.01-4.99-8.91-10.8-12.66-16.73c-1.02-1.61-2.02-3.23-2.92-4.66c3.5-3.59,6.82-7.07,10.25-10.45c1.9-1.87,3.93-3.61,5.95-5.35
	c4.56-3.92,8.86-8.08,12.06-13.24c0.34-0.54,0.7-1.08,0.91-1.68C558.47,43.8,557.79,42.49,555.51,42.04z"/>
<g>
	<g>
		<path class="st1" d="M540.07,99.04c-3.66-4.07-6.71-8.69-10.06-13.04c-1.86-2.4-3.69-4.84-5.74-7.08
			c-2.43-2.65-2.49-3.92,0.46-5.73c4.4-2.7,7.96-6.23,11.36-10.09c2.77-3.15,6.2-5.72,9.32-8.57c2.05-1.87,4.14-3.7,6.05-5.71
			c0.63-0.66,0.77-1.8,1.33-3.22c-14.98-3.26-29.39-7.45-44.5-9.8c-0.32,1.5-0.71,2.59-0.75,3.7c-0.24,6.5-0.24,13.02-0.66,19.52
			c-0.27,4.12,0.55,8.07,0.89,12.09c0.31,3.53-0.08,7.14-0.4,10.7c-0.17,1.9-2.01,2.42-3.47,2.33c-3.96-0.24-7.04,1.38-10.35,3.35
			c-6.56,3.9-12.93,8.05-19.2,12.39c-1.66,1.15-3.63,1.85-5.46,2.77c-0.84,0.42-1.66,0.88-3.17,1.68c1.79,0.58,2.81,1.13,3.86,1.22
			c11.43,1.04,22.86,2.71,34.3,2.8c10.76,0.09,21.37,1.87,32.11,1.68c3.95-0.07,7.9,0.25,11.86,0.4c0.9,0.95,1.8,1.91,3.19,3.39
			c-1.78,0.49-2.83,1.09-3.82,1c-4.53-0.42-9.02-1.24-13.56-1.56c-14.14-0.98-28.29-1.8-42.43-2.67c-2.55-0.16-5.12-0.14-7.66-0.38
			c-5.72-0.53-11.44-1.21-17.16-1.75c-1.59-0.15-3.26-0.3-4.81-0.01c-1.64,0.31-2.69-0.21-2.84-1.65c-0.19-1.95-0.61-4.35,0.28-5.85
			c3.29-5.57,1.94-11.23,1.6-17.18c-4.38,0.25-8.3,0.59-12.23,0.67c-7.41,0.15-14.83,0.14-22.25,0.21
			c-7.15,0.07-14.29,0.19-21.44,0.2c-4.57,0.01-9.13-0.15-13.69-0.2c-6.9-0.08-13.8-0.13-20.7-0.19c-2.56-0.02-5.12-0.12-7.67-0.05
			c-6.1,0.15-12.2,0.59-18.29,0.52c-8.31-0.1-16.62-0.62-24.93-0.84c-7.29-0.19-14.58-0.24-21.87-0.3
			c-4.86-0.04-9.73-0.01-14.59,0.06c-6.64,0.09-13.29,0.21-19.93,0.37c-4.99,0.13-9.99,0.27-14.97,0.56
			c-8.03,0.46-16.04,1.46-24.07,1.48c-12.51,0.04-25.01-0.34-37.52,0.33c-7.66,0.41-15.33,0.52-22.99,0.78
			c-9.44,0.32-18.87,0.71-28.31,0.96c-3.82,0.1-7.65-0.01-11.48-0.18c-3.64-0.16-7.27-0.53-10.6-0.78
			c-2.88,4.93-2.5,10.2-3.52,15.16c-0.4,1.92-0.55,4.27,0.22,5.94c1.07,2.3-0.01,3.31-1.33,4.56c-1.82,1.72-4.03,1.39-6.18,1.07
			c-7.06-1.08-14.08-2.53-21.18-3.23c-10.14-1-20.19-2.56-30.17-4.54c-10.75-2.13-21.47-4.4-32.25-6.42
			c-3.98-0.74-8.07-0.88-12.1-1.41c-1.73-0.23-3.49-0.58-5.13-1.17c-1.63-0.58-2-1.82-0.84-2.95c2.46-2.39,5.14-4.55,6.65-7.76
			c0.12-0.26,0.7-0.27,1.02-0.48c3.07-2.05,6.16-4.06,9.18-6.18c4.06-2.85,8.01-5.85,12.11-8.65c1.46-1,3.2-1.58,4.8-2.38
			c3.53-1.77,3.58-2.61,0.55-4.98c-1.18-0.93-2.27-2.02-3.25-3.17c-3.96-4.63-7.85-9.31-11.79-13.96c-2.63-3.1-5.38-6.11-7.94-9.27
			c-2.46-3.01-1.69-4.52,2.04-5.49c5.79-1.49,11.81-0.87,17.62-2.49c9.34-2.62,18.83-4.76,28.26-7.06c2.17-0.53,3.16-1.62,3.14-4.04
			c-0.04-4.08,0.37-8.16,0.52-12.25c0.05-1.3,0.4-2.37,1.72-2.64c1.46-0.3,1.98,0.78,2.34,1.98c0.13,0.44,0.47,0.81,0.69,1.19
			c1.79-0.4,3.37-0.98,4.98-1.08c5.73-0.33,11.47-0.44,17.21-0.73c2.17-0.11,4.31-0.61,6.47-0.72c3.42-0.16,6.86-0.17,10.28-0.19
			c6.64-0.04,13.27-0.03,19.91-0.09c1.27-0.01,2.54-0.27,3.81-0.38c3.43-0.29,6.86-0.62,10.29-0.81c2.9-0.16,5.81-0.1,8.71-0.2
			c3.06-0.1,6.11-0.33,9.17-0.39c5.85-0.12,11.76,0.32,17.54-0.35c10.43-1.19,20.9-0.78,31.34-1.36c8.14-0.46,16.34,0.35,24.51,0.52
			c4.87,0.1,9.75,0.31,14.59,0.02c9.22-0.56,18.41,0.12,27.61,0.38c6.38,0.19,12.76,0.12,19.14,0.1c6.11-0.01,12.22-0.16,18.33-0.14
			c4.48,0.02,8.96,0.32,13.44,0.29c8.79-0.05,17.58-0.34,26.38-0.33c6.12,0,12.25,0.37,18.38,0.48c4.85,0.09,9.71-0.15,14.55,0.09
			c7.78,0.39,15.53,1.26,23.31,1.56c10.21,0.4,20.44,0.42,30.67,0.63c3.07,0.06,6.14,0.41,9.2,0.28c7.27-0.32,14.53-0.86,21.8-1.28
			c5.49-0.32,11-0.93,16.48-0.76c4.26,0.14,8.39,0.08,12.55-0.89c3.09-0.72,7.35,2.15,7.45,4.92c0.15,4.18,0.12,8.38,0.23,12.56
			c0.09,3.45,0.28,6.9,0.41,10.35c0.06,1.49,0.66,2.16,2.27,2.48c4.71,0.94,9.37,2.14,14.05,3.26c8.32,1.98,16.63,4.02,24.97,5.94
			c2.35,0.54,4.79,0.66,7.16,1.13c2.28,0.44,2.96,1.75,2.19,3.95c-0.21,0.59-0.58,1.14-0.91,1.68c-3.2,5.16-7.5,9.31-12.06,13.24
			c-2.02,1.74-4.05,3.47-5.95,5.35c-3.43,3.38-6.75,6.87-10.25,10.45c0.9,1.43,1.9,3.05,2.92,4.66c3.75,5.93,7.65,11.73,12.66,16.73
			c2.26,2.24,4.39,4.63,6.36,7.13c2.91,3.68,2.37,4.77-2.31,5.36c-0.12,0.01-0.26-0.01-0.38-0.01
			C546.61,105.77,543.23,102.55,540.07,99.04z M484.34,6.13c-7.65,0.27-15.29,0.8-22.93,1.2c-6.37,0.32-12.74,0.66-19.12,0.88
			c-2.41,0.08-4.84-0.13-7.25-0.2c-8.56-0.26-17.13-0.39-25.69-0.8c-7.64-0.37-15.26-1.12-22.89-1.57
			c-3.44-0.21-6.91-0.03-10.36-0.15c-6.26-0.21-12.51-0.67-18.77-0.74c-7.67-0.07-15.35,0.22-23.03,0.24
			c-8.82,0.02-17.64-0.1-26.46-0.12c-2.68-0.01-5.36,0.12-8.04,0.12c-9.08-0.02-18.17-0.02-27.25-0.13
			c-7.15-0.09-14.3-0.43-21.45-0.48c-6.11-0.05-12.22,0.35-18.32,0.2c-14.84-0.36-29.67-0.66-44.51,0.22
			c-7.77,0.46-15.55,0.67-23.33,0.9c-6.89,0.21-13.78,0.18-20.66,0.47c-4.71,0.19-9.4,0.86-14.12,1.07
			c-4.08,0.18-8.18-0.05-12.27,0.04c-7.01,0.16-14.03,0.35-21.04,0.7c-3.44,0.17-6.86,0.8-10.3,1.07c-5.6,0.45-11.2,0.77-16.81,1.17
			c-0.62,0.04-1.23,0.26-2.29,0.48c-0.18,2.99-0.66,6.03-0.49,9.04c0.47,8.16,1.32,16.31,1.81,24.47c0.4,6.62,1.49,13.17,1.22,19.85
			c-0.23,5.85-0.03,11.71-0.02,18.12c2.49,0.26,5.09,0.74,7.69,0.77c6.14,0.09,12.27,0.07,18.41-0.09
			c10.25-0.27,20.37,1.69,30.58,1.82c6.63,0.09,13.24,0.39,19.91-0.23c7.74-0.72,15.56-0.51,23.35-0.79
			c6.24-0.24,12.48-0.71,18.73-0.9c5.24-0.16,10.49-0.14,15.74-0.08c14.49,0.15,28.94-0.56,43.4-1.4
			c9.17-0.54,18.37-0.69,27.56-0.86c7.8-0.14,15.61-0.07,23.41-0.08c6.51-0.01,13.03-0.16,19.54,0.04
			c9.68,0.31,19.34,0.99,29.02,1.29c3.82,0.12,7.65-0.44,11.47-0.53c4.2-0.1,8.4,0.02,12.59,0c5.62-0.03,11.24-0.12,16.86-0.14
			c5.23-0.02,10.45,0,15.68,0.02c7.27,0.02,14.54,0.06,21.82,0.07c8.29,0.02,16.55-1.16,24.89-0.35c3.87,0.38,7.86-0.76,11.81-0.89
			c6.23-0.21,12.47-0.22,18.71-0.17c5.11,0.04,10.21,0.48,15.31,0.36c1.81-0.04,3.7-1,5.36-1.91c0.83-0.45,1.41-1.66,1.73-2.66
			c0.34-1.06,0.48-2.32,0.25-3.4c-1.41-6.71-1.17-13.39-0.52-20.18c0.83-8.77,0.17-17.57-0.36-26.36
			c-0.35-5.73-0.27-11.49-0.42-17.23c-0.02-0.73-0.3-1.45-0.48-2.25C495.79,6.04,490.05,5.92,484.34,6.13z M92.79,103.55
			c-3.01-1.9-6.07-3.74-8.96-5.8c-4.03-2.86-7.97-5.86-11.87-8.91c-1.89-1.48-3.8-3.03-5.32-4.86c-0.76-0.93-0.99-2.57-0.92-3.87
			c0.22-4.58,1-9.16,0.97-13.73c-0.02-5.42-0.68-10.85-1.04-16.27c-0.35-5.48-0.64-10.96-1.03-16.43c-0.17-2.41-0.53-4.81-0.81-7.29
			c-4.24-0.68-7.97,0.82-11.76,1.82c-3.44,0.91-6.81,2.06-10.25,2.95c-5.79,1.51-11.6,3-17.44,4.31c-2.34,0.52-4.8,0.53-7.68,0.83
			c1.81,2.48,3.34,4.76,5.05,6.9c2.3,2.86,4.82,5.56,7.11,8.43c3.93,4.92,8.48,9.04,14.11,11.99c2.77,1.45,2.56,3.86-0.32,5.37
			c-3.14,1.65-6.35,3.16-9.48,4.84c-1.2,0.65-2.24,1.61-3.34,2.44c-0.6,0.45-1.17,0.96-1.79,1.39c-3.87,2.65-7.75,5.28-11.62,7.94
			c-1.75,1.2-3.51,2.19-4.42,4.51c-0.52,1.33-2.71,2-4.45,3.17c1.53,1.42,3.41,1.61,5.19,1.98c7.86,1.62,15.73,3.23,23.6,4.8
			c7.01,1.4,14.01,2.91,21.07,4.07c8.3,1.35,16.64,2.42,24.97,3.53c5.43,0.72,10.88,1.31,16.33,1.92c0.59,0.07,1.19-0.05,1.79-0.09
			c0.11-0.33,0.21-0.66,0.32-1C98.13,106.85,95.44,105.23,92.79,103.55z M76.32,87.17c8.98,8.42,18.63,14.34,29.44,19.39
			c0.72-6.64,1.4-12.86,2.16-19.8C97.24,86.67,87.22,85.92,76.32,87.17z M480.4,83.35c-4.21,0.04-8.41,0.34-12.63,0.45
			c-2.09,0.06-3,1.1-3.04,3.11c-0.1,4.04-0.23,8.07-0.35,12.39c5.12-0.46,8.8-3.99,12.92-6.51c4.2-2.57,8.29-5.32,12.43-7.99
			c-0.1-0.36-0.2-0.72-0.3-1.08C486.43,83.59,483.41,83.32,480.4,83.35z"/>
	</g>
</g>
</svg>
