<?xml version="1.0" encoding="utf-8"?>
<!-- Generator: Adobe Illustrator 22.1.0, SVG Export Plug-In . SVG Version: 6.00 Build 0)  -->
<svg version="1.1" id="Layer_1" xmlns="http://www.w3.org/2000/svg" xmlns:xlink="http://www.w3.org/1999/xlink" x="0px" y="0px"
	 viewBox="0 0 340.9 223.4" style="enable-background:new 0 0 340.9 223.4;" xml:space="preserve">
<style type="text/css">
	.st0{fill:#A1AAB5;}
	.st1{fill:#46C4D6;}
	.st2{fill:#F3AC45;}
</style>
<g>
	<g>
		<path class="st0" d="M29.2,163.8v3.9c0,4.9-2.3,7.5-7.1,7.5h-2.3v11.4h-4.8v-30.3h7C26.9,156.4,29.2,159,29.2,163.8z M19.9,160.7
			V171h2.3c1.5,0,2.3-0.7,2.3-2.9v-4.5c0-2.2-0.8-2.9-2.3-2.9H19.9z"/>
		<path class="st0" d="M44.9,169.1h6.5v4.3h-6.5v8.9h8.2v4.3h-13v-30.3h13v4.3h-8.2V169.1z"/>
		<path class="st0" d="M64.7,156.4h7.5c4.8,0,7.1,2.6,7.1,7.5v15.3c0,4.9-2.3,7.5-7.1,7.5h-7.5V156.4z M69.5,160.7v21.7h2.7
			c1.5,0,2.4-0.8,2.4-2.9v-15.8c0-2.2-0.9-2.9-2.4-2.9H69.5z"/>
		<path class="st0" d="M91,156.4h4.8v30.3H91V156.4z"/>
		<path class="st0" d="M123.3,186.7h-4.8l-0.8-5.5h-5.8l-0.8,5.5h-4.4l4.9-30.3h7L123.3,186.7z M112.5,177.1h4.6l-2.3-15.3
			L112.5,177.1z"/>
		<path class="st0" d="M131.2,156.4h14.7v4.3h-5v26h-4.8v-26h-5V156.4z"/>
		<path class="st0" d="M166.6,186.7c-0.3-0.8-0.4-1.3-0.4-3.7v-4.8c0-2.8-1-3.9-3.1-3.9h-1.6v12.3h-4.8v-30.3h7.2
			c4.9,0,7.1,2.3,7.1,7v2.4c0,3.1-1,5.2-3.1,6.2c2.4,1,3.2,3.3,3.2,6.5v4.7c0,1.5,0,2.6,0.5,3.7H166.6z M161.4,160.7v9.3h1.9
			c1.8,0,2.9-0.8,2.9-3.2v-3c0-2.2-0.7-3.1-2.4-3.1H161.4z"/>
		<path class="st0" d="M182.7,156.4h4.8v30.3h-4.8V156.4z"/>
		<path class="st0" d="M213.5,175.4v4c0,4.9-2.4,7.6-7.1,7.6c-4.7,0-7.1-2.8-7.1-7.6v-15.8c0-4.9,2.4-7.6,7.1-7.6
			c4.7,0,7.1,2.8,7.1,7.6v2.9h-4.5v-3.2c0-2.2-1-3-2.5-3c-1.5,0-2.5,0.8-2.5,3v16.4c0,2.2,1,2.9,2.5,2.9c1.5,0,2.5-0.8,2.5-2.9v-4.3
			H213.5z"/>
		<path class="st0" d="M231.4,156c4.6,0,7,2.8,7,7.6v1h-4.5v-1.3c0-2.2-0.9-3-2.4-3c-1.5,0-2.4,0.8-2.4,3c0,6.2,9.3,7.4,9.3,16.1
			c0,4.9-2.4,7.6-7.1,7.6c-4.7,0-7.1-2.8-7.1-7.6v-1.9h4.5v2.2c0,2.2,1,2.9,2.5,2.9c1.5,0,2.5-0.8,2.5-2.9c0-6.2-9.3-7.4-9.3-16.1
			C224.4,158.8,226.8,156,231.4,156z"/>
	</g>
	<g>
		<path class="st1" d="M190.9,89.6c-3.6-3.2-8.5-4.8-14.7-4.8c-5.2,0-10.6,1.7-16.1,5.2c-1.3,0.8-3.1,1.2-5.2,1.2
			c-3.6-4.3-8.4-6.4-14.3-6.4c-4.9,0-10.2,1.7-15.7,5.2c-1.9,1.2-2.8,1.1-2.8-0.2c0-2.2-0.9-3.6-2.6-4.2c-0.7-0.3-2.3-0.4-5-0.4
			c-2.8,0-4.5,0.1-5,0.4c-1.7,0.6-2.6,2-2.6,4.2V136c0,2.1,0.9,3.5,2.6,4c0.5,0.3,2.2,0.4,5.1,0.4c2.7,0,4.4-0.1,5.1-0.4
			c1.8-0.5,2.6-1.9,2.6-4v-34.7c0-2,1.7-4.3,5-6.8c3.4-2.5,6.5-3.8,9.4-3.8c2.6,0,4.3,0.2,5.1,0.6c1.3,0.8,2,2.7,2,5.6V136
			c0,2.1,0.9,3.5,2.6,4c0.5,0.3,2.2,0.4,5.1,0.4c2.7,0,4.4-0.1,5.1-0.4c1.8-0.5,2.6-1.9,2.6-4v-32.9c0-1.2,0-2.4,0-3.6
			c0.4-2.5,2.2-4.8,5.4-6.7c3.2-1.9,6.3-2.9,9.3-2.9c4.6,0,6.8,2.3,6.8,7V136c0,2.1,0.9,3.5,2.6,4c0.5,0.3,2.2,0.4,5.1,0.4
			c2.7,0,4.4-0.1,5.1-0.4c1.8-0.5,2.6-1.9,2.6-4v-32.9C196.3,97.3,194.5,92.8,190.9,89.6z"/>
	</g>
	<g>
		<path class="st1" d="M225.8,56.5c-2,0-3.7,0.7-5.2,2.2c-1.5,1.5-2.2,3.3-2.2,5.4c0,2.1,0.7,3.9,2.2,5.4c1.5,1.5,3.2,2.2,5.2,2.2
			c2.1,0,3.9-0.7,5.4-2.2c1.5-1.5,2.2-3.3,2.2-5.4c0-2.1-0.7-3.9-2.2-5.4C229.7,57.2,227.9,56.5,225.8,56.5z"/>
	</g>
	<g>
		<path class="st1" d="M230.4,86.2c-0.7-0.3-2.3-0.4-5-0.4c-2.8,0-4.5,0.1-5,0.4c-1.7,0.5-2.6,1.9-2.6,4V136c0,2.1,0.9,3.5,2.6,4
			c0.5,0.3,2.2,0.4,5,0.4c2.7,0,4.3-0.1,5-0.4c1.7-0.5,2.6-1.9,2.6-4V90.2C233,88.1,232.1,86.7,230.4,86.2z"/>
	</g>
	<g>
		<path class="st1" d="M254.7,6.1V136c0,2.1,0.9,3.5,2.6,4c0.5,0.3,2.2,0.4,5.1,0.4c2.7,0,4.4-0.1,5.1-0.4c1.8-0.5,2.6-1.9,2.6-4
			V6.1"/>
	</g>
	<g>
		<g>
			<path class="st1" d="M331.7,131.8c-0.5,0-1.2,0.2-1.8,0.6c-4.9,3.1-9.6,4.6-14.2,4.6c-3.7,0-6-0.1-6.9-0.4
				c-2.2-0.5-3.9-1.8-5.1-3.9c-0.5-2.3-0.9-5.2-1.2-8.7c-0.1-1.6,0.5-2.9,1.8-3.7c1.4-0.9,2.8-1.3,4.5-1.1c1.1,0,2.2,0,3.3,0
				c7.8,0,14-1.7,18.6-5c4.5-3.3,6.8-8.2,6.8-14.7c0-4.4-2-8.1-6-11c-3.7-2.5-7.8-3.8-12.2-3.8c-9.5,0-17.2,2.9-23.2,8.7
				c-6,5.8-8.9,12.8-8.9,20.9c0,7.9,2.8,14.5,8.3,19.8c5.5,5.3,12.4,8,20.6,8c6.6,0,12-2,16.5-5.9c0.7-0.7,1-1.5,1-2.5
				C333.4,132.4,332.8,131.8,331.7,131.8z M303.9,95.7c2.3-3.8,6.8-5.7,13.5-5.7c9.3,0,13.9,3.6,13.9,10.7c0,4.2-1.9,7.6-5.7,10.2
				c-3.8,2.6-8,3.9-12.7,3.9c-2,0-4.2-0.4-6.5-1.2c-2.8-0.9-4.2-2.2-4-3.8C302.6,103.9,303.1,99.2,303.9,95.7z"/>
		</g>
	</g>
	<g>
		<path class="st2" d="M37.9,107.3c0,3.7-3,6.7-6.7,6.7c-3.7,0-6.7-3-6.7-6.7c0-3.7,3-6.7,6.7-6.7C34.9,100.6,37.9,103.6,37.9,107.3
			z"/>
	</g>
	<g>
		<path class="st2" d="M66.9,107.3c0,3.7-3,6.7-6.7,6.7c-3.7,0-6.7-3-6.7-6.7c0-3.7,3-6.7,6.7-6.7C63.9,100.6,66.9,103.6,66.9,107.3
			z"/>
	</g>
	<g>
		<path class="st2" d="M86.1,116.8c-1.5-10.3-12.4-17.7-12.4-17.7c0.5,1.2,1.1,2.9,1.5,5c0.1,0.3,0.1,0.6,0.2,0.9l0,0
			c0.6,3.4,0.8,7.6-0.5,12.1c0,0-0.1,0-0.1,0c-1.3,5.2-4.1,9.5-8.3,12.9c-5.6,4.6-12.4,6.8-20.4,6.8c-8.3,0-15.6-2.4-22-7.2
			c-6.7-4.9-10.3-11.3-10.7-19.1c-0.1-2.1-1-3.2-2.7-3.2c-1.7,0-2.4,1.3-2.3,4c0.5,8.8,4.4,16.2,11.6,22.1c7.3,5.9,16,8.8,26.2,8.8
			c2.1,0,4.1-0.1,6-0.3c0,0,0.1,0,0.1,0C72.1,141.8,87.6,127.1,86.1,116.8z"/>
	</g>
	<g>
		<path class="st1" d="M73.8,82.9L73.8,82.9c-4.2-2.9-9.5-6.2-15.9-9.7c-9-5-15-8.9-18.1-11.8c-5.6-5.4-8.4-11.5-8.4-18.5
			c0-7.1,3.2-12.7,9.6-16.9c5.9-3.9,12.9-5.8,21.1-5.8c1.9,0,4.7,0.7,8.4,2c2.4,0.8,3.9-0.1,4.4-2.6c0.3-1.3-0.5-2.2-2.4-2.6
			c-3.3-0.8-6.3-1.3-8.8-1.4c-6.2-0.3-12.1,0.3-17.6,2c-38,14.5-25.2,55.1,2.1,63.3l0.8,0.1l-0.9-0.1c0,0,42.9,11.4,44.4,42.4
			C92.6,123.4,93,94.5,73.8,82.9z"/>
	</g>
	<g>
		<g>
			<g>
				<path class="st0" d="M274.1,200.5c-0.4-9-0.8-18.2-1.1-27.2c-1.9,0.1-3.8,0.2-5.7,0.3c1.8,9,3.5,18,5.1,27
					C273,200.6,273.6,200.6,274.1,200.5z"/>
			</g>
			<g>
				<path class="st0" d="M324.2,201.1c1.8-9,3.6-18,5.5-26.9c-1.9-0.1-3.8-0.3-5.6-0.4c-0.4,9-0.9,18.2-1.4,27.2
					C323.1,201,323.6,201,324.2,201.1z"/>
			</g>
			<g>
				<path class="st0" d="M309.4,173l-0.5,0c-2-0.1-4-0.1-6.1-0.1c0.4,9,0.8,18.2,1,27.2c0.5,0,1.1,0,1.6,0
					c0.9-8.6,1.9-17.6,2.9-26.5l1,0c0.1,9.1,0.2,18.2,0.2,27.1h0c0.8,0,1.7,0.1,2.5,0.1c1.2-8.9,2.5-17.9,3.8-27l1,0.1
					c-0.1,9-0.3,17.9-0.6,26.6c0.5,0,1.1,0.1,1.6,0.1c1.5-9,3-18,4.7-27c-2-0.1-4-0.2-6-0.3l-0.6,0l0.1-0.5
					c-2.3-0.1-4.5-0.2-6.7-0.3L309.4,173z"/>
			</g>
			<g>
				<path class="st0" d="M266,173.7c-1.9,0.1-3.8,0.3-5.6,0.4c2.1,8.9,4,18,5.9,26.9c0.5,0,1.1-0.1,1.6-0.1
					C267.2,191.9,266.5,182.7,266,173.7z"/>
			</g>
			<g>
				<path class="st0" d="M299.2,200c0.7-9,1.4-18.2,2.2-27.2c-1.9,0-3.8,0-5.7,0c0.7,9,1.3,18.2,1.9,27.2
					C298.1,200,298.6,200,299.2,200z"/>
			</g>
			<g>
				<path class="st0" d="M292.9,200c0.4-9,0.9-18.2,1.4-27.2c-1.9,0-3.8,0-5.7,0c1,9,1.9,18.1,2.7,27.2
					C291.8,200,292.3,200,292.9,200z"/>
			</g>
			<g>
				<path class="st0" d="M280.4,200.2c-0.1-9-0.2-18.2-0.3-27.2c-1.9,0.1-3.8,0.1-5.7,0.2c1.5,9,3,18.1,4.3,27.1
					C279.3,200.3,279.8,200.3,280.4,200.2z"/>
			</g>
			<g>
				<path class="st0" d="M286.6,200.1c0.1-9,0.3-18.2,0.6-27.2c-1.9,0-3.8,0.1-5.7,0.1c1.2,9,2.4,18.1,3.5,27.1
					C285.6,200.1,286.1,200.1,286.6,200.1z"/>
			</g>
		</g>
		<g>
			<path class="st2" d="M269.1,149.9c-1.3,0.4-13.1,4.8-8.8,14.1c4.6,9.9,16.4,7,26.9,1.5c10.5-5.5,25.6-4.2,42.5,4.3
				c0,0-0.6-0.5-1.7-1.3c0.4,0.2,0.7,0.4,1.1,0.6c0,0-18.6-17.3-39.3-13.7c-20.7,3.6-20.9-4.4-16.6-7.2
				C273.1,148.2,271.2,148.7,269.1,149.9z"/>
		</g>
		<g>
			<path class="st1" d="M187.5,202.9C67.6,194.1,15,192.5,6,197.4c-1.8,1-2.2,2.1-2.2,2.8c0,0.6,0.3,1.2,0.7,1.8
				c8.3,10.1,38.1,10.8,69.6,11.4c5.8,0.1,11.6,0.3,17.2,0.4c35.5,1.2,155.2,1.7,168.7,1.7h58.3l0.9-0.1c3.7-0.6,10.8-3,10.8-7.9v0
				c0-0.6-0.1-1.3-0.4-2l-0.7-1.9l-3.2,0.1c-0.9,0-90.9,2.4-124.8,0C197.6,203.7,193,203.3,187.5,202.9z"/>
		</g>
	</g>
</g>
</svg>
